# xmcd
#
# Track frame offsets:
#	150
#	11751
#	21591
#	34354
#	47750
#	61829
#	74745
#	88650
#	98376
#	112757
#	127118
#	142694
#	152688
#	170840
#	183082
#	199898
#	212118
#	224373
#	238413
#	248249
#
# Disc length: 3487 seconds
#
# Revision: 1
# Processed by: cddbd v1.5.2PL0 Copyright (c) Steve Scherf et al.
# Submitted via: audiograbber 1.83.01
#
DISCID=260d9d14
DTITLE=FRANK SINATRA  - FRANK SINATRA ONE FOR MY BABY BEST FO
DYEAR=1900
DGENRE=Swing
TTITLE0=LEARN BABY
TTITLE1=I'VE GOT THE WORLD ON A STRING
TTITLE2=SOUTH OF THE BORDER
TTITLE3=FROM HERE TO ETERNITY
TTITLE4=VIOLETS FOR YOUR FURS
TTITLE5=YOUNG AT HEART
TTITLE6=THREE COINS IN THE FOUNTAIN
TTITLE7=ALL OF ME
TTITLE8=THE GAL THAT GOT AWAY
TTITLE9=WHEN YOUR LOVER HAS GONE
TTITLE10=NO ONE EVER TELLS YOU
TTITLE11=THE LAST DANCE
TTITLE12=I CAN'T GET STARTED
TTITLE13=HIGH HOPES
TTITLE14=I'LL NEVER SMILE AGAIN
TTITLE15=RING A DING DING
TTITLE16=THE NEARNESS OF YOU
TTITLE17=TALK TO ME
TTITLE18=LET'S FAN IN LOVE
TTITLE19=DREAM
EXTD=
EXTT0=
EXTT1=
EXTT2=
EXTT3=
EXTT4=
EXTT5=
EXTT6=
EXTT7=
EXTT8=
EXTT9=
EXTT10=
EXTT11=
EXTT12=
EXTT13=
EXTT14=
EXTT15=
EXTT16=
EXTT17=
EXTT18=
EXTT19=
PLAYORDER=
